{"asset":{"generator":"Khronos glTF Blender I/O v4.1.63","version":"2.0"},"scene":0,"scenes":[{"name":"Scene","nodes":[0]}],"nodes":[{"mesh":0,"name":"Shelf","rotation":[0.70710688829422,0,0,0.7071066498756409],"scale":[0.009999999776482582,0.010000000707805157,0.010000000707805157]}],"materials":[{"doubleSided":true,"name":"shelf","normalTexture":{"index":0,"scale":0},"pbrMetallicRoughness":{"baseColorTexture":{"index":1},"metallicFactor":0,"roughnessFactor":0.5527864098548889}}],"meshes":[{"name":"Scene","primitives":[{"attributes":{"POSITION":0,"NORMAL":1,"TEXCOORD_0":2},"indices":3,"material":0}]}],"textures":[{"sampler":0,"source":0},{"sampler":0,"source":1}],"images":[{"mimeType":"image/png","name":"NormalMap_Texture","uri":"data:application/octet-stream;base64,"},{"mimeType":"image/png","name":"DiffuseColor_Texture","uri":"data:application/octet-stream;base64,"}],"accessors":[{"bufferView":0,"componentType":5126,"count":156,"max":[71.93500518798828,109.6222152709961,24.564834594726562],"min":[-111.35476684570312,-0.2207379788160324,-49.87154006958008],"type":"VEC3"},{"bufferView":1,"componentType":5126,"count":156,"type":"VEC3"},{"bufferView":2,"componentType":5126,"count":156,"type":"VEC2"},{"bufferView":3,"componentType":5123,"count":414,"type":"SCALAR"}],"bufferViews":[{"buffer":0,"byteLength":1872,"byteOffset":0,"target":34962},{"buffer":0,"byteLength":1872,"byteOffset":1872,"target":34962},{"buffer":0,"byteLength":1248,"byteOffset":3744,"target":34962},{"buffer":0,"byteLength":828,"byteOffset":4992,"target":34963}],"samplers":[{"magFilter":9729,"minFilter":9987}],"buffers":[{"byteLength":5820,"uri":"data:application/octet-stream;base64,"}]}